<svg width="24" height="24" viewBox="0 0 24 24" fill="none" xmlns="http://www.w3.org/2000/svg">
<mask id="path-1-inside-1_10577_373" fill="white">
<path fill-rule="evenodd" clip-rule="evenodd" d="M5 3C3.89543 3 3 3.89543 3 5V19C3 20.1046 3.89543 21 5 21H19C20.1046 21 21 20.1046 21 19V5C21 3.89543 20.1046 3 19 3H5ZM17.6823 9.73106C18.0861 9.35422 18.1079 8.72143 17.7311 8.31768C17.3542 7.91393 16.7214 7.89211 16.3177 8.26894L10.6128 13.5935L7.72414 10.5603C7.34325 10.1604 6.71028 10.145 6.31034 10.5259C5.91041 10.9067 5.89498 11.5397 6.27586 11.9397L9.84729 15.6897C10.2255 16.0867 10.8529 16.1052 11.2537 15.7311L17.6823 9.73106Z"/>
</mask>
<path fill-rule="evenodd" clip-rule="evenodd" d="M5 3C3.89543 3 3 3.89543 3 5V19C3 20.1046 3.89543 21 5 21H19C20.1046 21 21 20.1046 21 19V5C21 3.89543 20.1046 3 19 3H5ZM17.6823 9.73106C18.0861 9.35422 18.1079 8.72143 17.7311 8.31768C17.3542 7.91393 16.7214 7.89211 16.3177 8.26894L10.6128 13.5935L7.72414 10.5603C7.34325 10.1604 6.71028 10.145 6.31034 10.5259C5.91041 10.9067 5.89498 11.5397 6.27586 11.9397L9.84729 15.6897C10.2255 16.0867 10.8529 16.1052 11.2537 15.7311L17.6823 9.73106Z" fill="white"/>
<path d="M17.6823 9.73106L19.047 11.1932L17.6823 9.73106ZM16.3177 8.26894L17.6823 9.73106V9.73105L16.3177 8.26894ZM10.6128 13.5935L9.16456 14.9728L10.53 16.4065L11.9775 15.0556L10.6128 13.5935ZM7.72414 10.5603L9.17241 9.18103L9.17241 9.18103L7.72414 10.5603ZM6.31034 10.5259L4.93103 9.07759L4.93103 9.07759L6.31034 10.5259ZM6.27586 11.9397L4.82759 13.319L4.82759 13.319L6.27586 11.9397ZM9.84729 15.6897L8.39901 17.069H8.39902L9.84729 15.6897ZM11.2537 15.7311L9.88911 14.2689H9.88911L11.2537 15.7311ZM5 5V5V1C2.79086 1 1 2.79086 1 5H5ZM5 19V5H1V19H5ZM5 19H5H1C1 21.2091 2.79086 23 5 23V19ZM19 19H5V23H19V19ZM19 19V23C21.2091 23 23 21.2091 23 19H19ZM19 5V19H23V5H19ZM19 5H23C23 2.79086 21.2091 1 19 1V5ZM5 5H19V1H5V5ZM16.2689 9.68232C15.8921 9.27857 15.9139 8.64578 16.3177 8.26895L19.047 11.1932C20.2582 10.0627 20.3237 8.1643 19.1932 6.95305L16.2689 9.68232ZM17.6823 9.73105C17.2786 10.1079 16.6458 10.0861 16.2689 9.68232L19.1932 6.95305C18.0627 5.74179 16.1643 5.67633 14.953 6.80683L17.6823 9.73105ZM11.9775 15.0556L17.6823 9.73106L14.953 6.80683L9.24819 12.1314L11.9775 15.0556ZM6.27586 11.9397L9.16456 14.9728L12.0611 12.2142L9.17241 9.18103L6.27586 11.9397ZM7.68965 11.9741C7.28972 12.355 6.65675 12.3396 6.27586 11.9397L9.17241 9.18103C8.02976 7.98124 6.13083 7.93493 4.93103 9.07759L7.68965 11.9741ZM7.72414 10.5603C8.10502 10.9603 8.08959 11.5933 7.68966 11.9741L4.93103 9.07759C3.73124 10.2202 3.68493 12.1192 4.82759 13.319L7.72414 10.5603ZM11.2956 14.3103L7.72414 10.5603L4.82759 13.319L8.39901 17.069L11.2956 14.3103ZM9.88911 14.2689C10.29 13.8948 10.9174 13.9133 11.2956 14.3103L8.39902 17.069C9.53353 18.2602 11.4158 18.3156 12.6184 17.1932L9.88911 14.2689ZM16.3177 8.26894L9.88911 14.2689L12.6184 17.1932L19.047 11.1932L16.3177 8.26894Z" fill="white" mask="url(#path-1-inside-1_10577_373)"/>
</svg>
